<?xml version="1.0" standalone="no"?>
<!DOCTYPE svg PUBLIC "-//W3C//DTD SVG 20010904//EN"
 "http://www.w3.org/TR/2001/REC-SVG-20010904/DTD/svg10.dtd">
<svg version="1.0" xmlns="http://www.w3.org/2000/svg"
 width="700.000000pt" height="700.000000pt" viewBox="0 0 700.000000 700.000000"
 preserveAspectRatio="xMidYMid meet">
<metadata>
Created by potrace 1.11, written by Peter Selinger 2001-2013
</metadata>
<g transform="translate(0.000000,700.000000) scale(0.100000,-0.100000)"
fill="#000000" stroke="none">
<path d="M3195 6889 c-159 -55 -319 -111 -355 -124 -36 -13 -209 -74 -385
-135 -176 -62 -414 -145 -530 -185 -115 -40 -352 -123 -525 -183 -173 -61
-418 -146 -545 -191 -144 -50 -219 -80 -200 -81 40 -1 5663 -1 5695 0 24 1
-40 25 -750 272 -190 66 -473 165 -630 220 -157 54 -343 120 -415 144 -132 47
-248 87 -422 148 -54 19 -159 55 -233 81 -74 26 -184 64 -245 85 -60 21 -123
41 -140 44 -22 4 -109 -22 -320 -95z"/>
<path d="M0 5614 c0 -92 3 -124 13 -125 6 0 1581 -1 3499 -2 l3488 -2 0 126 0
126 -3500 0 -3500 0 0 -123z"/>
<path d="M250 5096 c0 -120 3 -146 19 -172 41 -67 -241 -62 3233 -61 2548 0
3152 2 3177 13 17 7 40 28 51 46 18 30 20 47 18 173 l-3 140 -3247 1 -3248 0
0 -140z"/>
<path d="M389 4612 c-13 -2 -15 -27 -14 -145 1 -120 4 -146 20 -170 39 -60 41
-60 486 -60 366 0 408 2 431 17 54 35 60 57 63 213 l2 143 -31 1 c-144 2 -946
3 -957 1z"/>
<path d="M2127 4600 c-2 -8 -3 -73 -2 -145 1 -108 4 -135 20 -158 39 -60 41
-60 481 -60 381 0 404 1 435 19 54 32 63 61 64 217 1 132 0 137 -19 137 -12 0
-236 2 -498 3 -417 2 -477 0 -481 -13z"/>
<path d="M3877 4600 c-2 -8 -3 -73 -2 -145 1 -108 4 -135 20 -158 39 -60 42
-60 480 -60 439 0 441 0 480 60 16 23 19 50 20 170 l1 143 -55 0 c-776 6 -940
5 -944 -10z"/>
<path d="M5675 4610 l-51 -5 1 -141 c1 -138 2 -143 28 -178 19 -25 38 -37 65
-42 20 -4 210 -7 422 -7 422 0 426 0 465 60 16 23 19 50 20 170 l1 143 -30 0
c-233 4 -883 4 -921 0z"/>
<path d="M608 3976 c-1 -13 -2 -18 -11 -71 -7 -41 -14 -95 -23 -175 -2 -25 -7
-56 -9 -70 -2 -14 -7 -61 -11 -105 -3 -44 -8 -87 -9 -96 -2 -9 -6 -61 -10
-115 -4 -55 -9 -117 -11 -139 -22 -236 -22 -870 1 -1185 19 -266 19 -264 45
-485 6 -49 13 -110 16 -135 8 -69 23 -153 29 -158 3 -3 122 -6 265 -6 l259 -1
10 65 c14 82 38 283 46 375 4 39 8 81 10 95 4 23 14 155 20 245 23 332 23 939
0 1195 -1 19 -6 79 -10 134 -3 54 -8 106 -10 115 -1 9 -6 54 -10 101 -4 47 -9
92 -10 101 -3 15 -9 64 -20 159 -5 34 -17 117 -21 133 -1 4 -2 14 -3 21 -1 13
-42 15 -266 14 -179 -1 -265 -5 -267 -12z"/>
<path d="M2356 3971 c-2 -9 -8 -43 -12 -76 -4 -33 -8 -67 -9 -75 -1 -8 -5 -44
-9 -80 -4 -36 -9 -76 -11 -90 -3 -14 -8 -56 -11 -95 -3 -38 -8 -83 -9 -100 -2
-16 -6 -68 -10 -115 -4 -47 -8 -105 -10 -130 -22 -269 -22 -942 -1 -1195 2
-22 7 -78 11 -125 12 -164 24 -285 30 -320 2 -14 7 -50 10 -80 11 -104 32
-240 39 -247 3 -3 123 -7 265 -7 l260 -1 5 30 c11 63 16 94 30 215 15 126 25
222 31 289 2 20 6 72 10 116 8 85 8 86 20 330 18 370 5 886 -30 1245 -12 127
-17 169 -20 190 -2 14 -6 52 -10 85 -9 86 -14 122 -26 192 l-11 61 -264 0
c-233 -1 -264 -3 -268 -17z"/>
<path d="M4106 3961 c-6 -28 -23 -153 -30 -211 -23 -196 -31 -275 -42 -415 -3
-44 -7 -100 -9 -125 -23 -273 -23 -865 -1 -1185 6 -79 18 -231 21 -260 1 -16
5 -61 9 -100 4 -38 8 -81 11 -95 2 -14 7 -50 10 -80 3 -30 7 -64 9 -75 3 -16
18 -132 20 -157 1 -3 4 -10 9 -14 9 -9 504 -12 519 -3 9 6 29 119 41 234 3 28
10 88 16 135 24 196 35 355 46 620 13 297 8 793 -10 980 -2 19 -6 78 -10 130
-3 52 -8 106 -10 120 -2 14 -6 59 -10 100 -4 41 -8 86 -10 100 -2 14 -7 50
-10 80 -4 30 -8 64 -10 75 -1 11 -6 47 -11 80 -4 33 -9 63 -10 68 -1 4 -2 11
-3 16 0 6 -111 9 -265 9 l-265 -1 -5 -26z"/>
<path d="M5856 3971 c-2 -9 -7 -43 -11 -76 -4 -32 -9 -68 -11 -78 -2 -10 -6
-48 -9 -85 -3 -37 -8 -74 -10 -82 -2 -8 -7 -48 -10 -87 -3 -40 -8 -80 -9 -90
-2 -10 -7 -65 -11 -123 -4 -58 -9 -121 -10 -140 -22 -260 -23 -928 0 -1195 1
-22 6 -80 10 -130 4 -49 8 -108 10 -130 3 -22 7 -67 10 -100 3 -33 8 -71 10
-85 4 -23 12 -93 20 -165 3 -27 8 -62 20 -134 2 -13 7 -26 10 -29 10 -10 517
-7 523 3 4 6 7 17 8 25 24 180 34 264 39 305 3 28 7 68 10 90 7 56 13 116 20
220 4 50 8 110 10 135 22 295 22 1034 0 1171 -2 13 -6 75 -10 138 -4 62 -8
121 -10 130 -1 9 -6 54 -10 101 -4 47 -8 87 -10 90 -1 3 -6 41 -10 85 -4 44
-8 82 -10 85 -1 3 -6 30 -9 60 -4 30 -8 64 -11 75 -2 11 -4 23 -4 27 -1 3
-120 6 -266 6 -235 0 -265 -2 -269 -17z"/>
<path d="M319 972 c-57 -29 -69 -67 -69 -224 l0 -137 3250 0 3250 0 0 137 c0
159 -12 196 -70 224 -32 15 -271 16 -3181 16 -2923 0 -3149 -1 -3180 -16z"/>
<path d="M99 358 c-17 -3 -46 -20 -63 -37 l-31 -31 -3 -145 -3 -145 3501 0
3501 0 -3 144 c-3 144 -3 145 -32 175 -17 18 -45 34 -65 37 -46 9 -6760 11
-6802 2z"/>
</g>
</svg>
